<svg width="20" height="20" viewBox="0 0 20 20" fill="none" xmlns="http://www.w3.org/2000/svg">
<path fill-rule="evenodd" clip-rule="evenodd" d="M3.38621 9.16699H6.26837C6.34351 7.34301 6.6634 5.67772 7.16224 4.39499C7.2331 4.21277 7.30857 4.03568 7.38877 3.86502C5.24954 4.77711 3.68445 6.77534 3.38621 9.16699ZM10.0013 1.66699C5.39893 1.66699 1.66797 5.39795 1.66797 10.0003C1.66797 14.6027 5.39893 18.3337 10.0013 18.3337C14.6037 18.3337 18.3346 14.6027 18.3346 10.0003C18.3346 5.39795 14.6037 1.66699 10.0013 1.66699ZM10.0013 3.33366C9.91057 3.33366 9.73329 3.37766 9.47945 3.65374C9.22496 3.93053 8.95747 4.37705 8.71558 4.99906C8.30211 6.06228 8.01081 7.51535 7.93657 9.16699H12.066C11.9918 7.51535 11.7005 6.06228 11.287 4.99906C11.0451 4.37705 10.7776 3.93053 10.5232 3.65374C10.2693 3.37766 10.092 3.33366 10.0013 3.33366ZM13.7342 9.16699C13.6591 7.34301 13.3392 5.67772 12.8404 4.39499C12.7695 4.21277 12.694 4.03568 12.6138 3.86502C14.7531 4.77711 16.3182 6.77534 16.6164 9.16699H13.7342ZM12.066 10.8337H7.93657C8.01081 12.4853 8.30211 13.9384 8.71558 15.0016C8.95747 15.6236 9.22496 16.0701 9.47945 16.3469C9.73329 16.623 9.91057 16.667 10.0013 16.667C10.092 16.667 10.2693 16.623 10.5232 16.3469C10.7776 16.0701 11.0451 15.6236 11.287 15.0016C11.7005 13.9384 11.9918 12.4853 12.066 10.8337ZM12.6138 16.1356C12.694 15.965 12.7695 15.7879 12.8404 15.6057C13.3392 14.3229 13.6591 12.6576 13.7342 10.8337H16.6164C16.3182 13.2253 14.7531 15.2235 12.6138 16.1356ZM7.38877 16.1356C7.30857 15.965 7.2331 15.7879 7.16224 15.6057C6.6634 14.3229 6.34351 12.6576 6.26837 10.8337H3.38621C3.68445 13.2253 5.24954 15.2235 7.38877 16.1356Z" fill="#747372"/>
</svg>
