<svg width="20" height="20" viewBox="0 0 20 20" fill="none" xmlns="http://www.w3.org/2000/svg">
<path d="M7.75002 4.66639C8.02616 4.2982 7.95154 3.77587 7.58335 3.49972C7.21516 3.22358 6.69283 3.2982 6.41669 3.66639L4.44299 6.29799L3.86684 5.81787C3.51328 5.52324 2.98781 5.57101 2.69317 5.92457C2.39853 6.27813 2.4463 6.8036 2.79987 7.09824L4.04987 8.13991C4.22535 8.28614 4.45316 8.35393 4.68003 8.32743C4.90691 8.30093 5.11297 8.18246 5.25002 7.99972L7.75002 4.66639Z" fill="#A0A0A0"/>
<path d="M10 5.83306C10 5.37282 10.3731 4.99972 10.8334 4.99972H16.6667C17.1269 4.99972 17.5 5.37282 17.5 5.83306C17.5 6.29329 17.1269 6.66639 16.6667 6.66639H10.8334C10.3731 6.66639 10 6.29329 10 5.83306Z" fill="#A0A0A0"/>
<path fill-rule="evenodd" clip-rule="evenodd" d="M5.00002 11.6664C3.61931 11.6664 2.50002 12.7857 2.50002 14.1664C2.50002 15.5471 3.61931 16.6664 5.00002 16.6664C6.38073 16.6664 7.50002 15.5471 7.50002 14.1664C7.50002 12.7857 6.38073 11.6664 5.00002 11.6664ZM4.16669 14.1664C4.16669 13.7062 4.53978 13.3331 5.00002 13.3331C5.46026 13.3331 5.83335 13.7062 5.83335 14.1664C5.83335 14.6266 5.46026 14.9997 5.00002 14.9997C4.53978 14.9997 4.16669 14.6266 4.16669 14.1664Z" fill="#A0A0A0"/>
<path d="M10.8334 13.3331C10.3731 13.3331 10 13.7062 10 14.1664C10 14.6266 10.3731 14.9997 10.8334 14.9997H16.6667C17.1269 14.9997 17.5 14.6266 17.5 14.1664C17.5 13.7062 17.1269 13.3331 16.6667 13.3331H10.8334Z" fill="#A0A0A0"/>
</svg>
